<svg width="40" height="40" viewBox="0 0 40 40" fill="none" xmlns="http://www.w3.org/2000/svg">
<path d="M0 19.7991C0 8.86437 8.86437 0 19.7991 0C30.7339 0 39.5983 8.86437 39.5983 19.7991C39.5983 30.7339 30.7339 39.5983 19.7991 39.5983C8.86437 39.5983 0 30.7339 0 19.7991Z" fill="#B6B6B6" fill-opacity="0.21"/>
<path d="M14.4277 27.384C13.494 28.1576 12.7371 27.5239 12.7371 25.9696V14.4998C12.7371 12.944 13.494 12.3111 14.4277 13.084L21.3682 18.8333C22.3022 19.6072 22.3022 20.861 21.3682 21.6347L14.4277 27.384Z" fill="white" fill-opacity="0.73"/>
<path d="M20.6462 27.384C19.7125 28.1576 18.9555 27.5239 18.9555 25.9696V14.4998C18.9555 12.944 19.7125 12.3111 20.6462 13.084L27.5866 18.8333C28.5206 19.6072 28.5206 20.861 27.5866 21.6347L20.6462 27.384Z" fill="white"/>
</svg>
