<svg width="32" height="32" viewBox="0 0 32 32" fill="none" xmlns="http://www.w3.org/2000/svg">
<rect width="31.6786" height="31.6786" rx="15.8393" fill="#B6B6B6" fill-opacity="0.21"/>
<path d="M16.1203 25.5768C14.9565 25.5768 13.8665 25.3595 12.8501 24.9251C11.8338 24.4906 10.9454 23.8932 10.1851 23.1329C9.42478 22.3726 8.82738 21.4842 8.39292 20.4679C7.95845 19.4515 7.74121 18.3615 7.74121 17.1977C7.74121 16.034 7.95845 14.9439 8.39292 13.9276C8.82738 12.9112 9.42478 12.0229 10.1851 11.2626C10.9454 10.5022 11.8338 9.90483 12.8501 9.47036C13.8665 9.0359 14.9565 8.81866 16.1203 8.81866H16.6556L15.3289 7.49198C15.2048 7.36784 15.1427 7.2088 15.1427 7.01484C15.1427 6.82088 15.2021 6.66183 15.3208 6.5377C15.4503 6.41356 15.6082 6.34762 15.7944 6.33986C15.9806 6.3321 16.1358 6.39029 16.2599 6.51442L18.7271 8.98159C18.8667 9.12124 18.9366 9.28416 18.9366 9.47036C18.9366 9.65657 18.8667 9.81949 18.7271 9.95914L16.2832 12.403C16.1435 12.5427 15.9806 12.6125 15.7944 12.6125C15.6082 12.6125 15.4423 12.5427 15.2965 12.403C15.163 12.2634 15.0962 12.1005 15.0962 11.9143C15.0962 11.7281 15.166 11.5651 15.3056 11.4255L16.5159 10.2152H16.0039C14.0643 10.2152 12.435 10.8926 11.1161 12.2476C9.79718 13.6025 9.13772 15.2526 9.13772 17.1977C9.13772 19.1428 9.81519 20.7929 11.1701 22.1479C12.5251 23.5028 14.1751 24.1803 16.1203 24.1803C18.0654 24.1803 19.7154 23.5028 21.0704 22.1479C22.4253 20.7929 23.1028 19.1428 23.1028 17.1977C23.1028 16.9999 23.1701 16.834 23.3047 16.7002C23.4393 16.5664 23.6061 16.4995 23.8051 16.4995C24.0041 16.4995 24.1696 16.5664 24.3015 16.7002C24.4334 16.834 24.4993 16.9999 24.4993 17.1977C24.4993 18.3615 24.2821 19.4515 23.8476 20.4679C23.4131 21.4842 22.8157 22.3726 22.0554 23.1329C21.2951 23.8932 20.4068 24.4906 19.3904 24.9251C18.3741 25.3595 17.284 25.5768 16.1203 25.5768Z" fill="white"/>
<path d="M13.5309 20.9036V15.8343L12.3955 16.5255V15.5494L13.5309 14.8707H14.4232V20.9036H13.5309Z" fill="white"/>
<path d="M17.8031 21.0293C17.4931 21.0293 17.204 20.9664 16.9359 20.8407C16.6706 20.7123 16.4429 20.5363 16.253 20.3129C16.0631 20.0866 15.9276 19.8269 15.8466 19.5336L16.6887 19.3074C16.7362 19.4861 16.8172 19.6411 16.9317 19.7724C17.049 19.9037 17.1859 20.0056 17.3423 20.0782C17.4987 20.1481 17.6607 20.183 17.8283 20.183C18.0489 20.183 18.2486 20.1299 18.4274 20.0238C18.6089 19.9177 18.7514 19.7752 18.8547 19.5965C18.9608 19.4177 19.0139 19.2208 19.0139 19.0057C19.0139 18.7851 18.9594 18.5854 18.8505 18.4066C18.7444 18.2279 18.6005 18.0868 18.419 17.9835C18.2402 17.8774 18.0433 17.8243 17.8283 17.8243C17.5825 17.8243 17.3744 17.8732 17.204 17.9709C17.0337 18.0687 16.901 18.1818 16.806 18.3103L16.0435 18.0421L16.2279 14.8707H19.4831V15.696H16.6762L17.0323 15.365L16.8856 17.7405L16.7139 17.5184C16.8731 17.3592 17.063 17.2377 17.2836 17.154C17.5043 17.0702 17.7235 17.0283 17.9414 17.0283C18.3157 17.0283 18.6494 17.1149 18.9427 17.288C19.2388 17.4612 19.472 17.6972 19.6423 17.9961C19.8127 18.2921 19.8979 18.6287 19.8979 19.0057C19.8979 19.38 19.8015 19.7207 19.6088 20.028C19.4161 20.3324 19.1605 20.5754 18.8421 20.757C18.5237 20.9385 18.1774 21.0293 17.8031 21.0293Z" fill="white"/>
</svg>
