<svg width="68" height="68" viewBox="0 0 68 68" fill="none" xmlns="http://www.w3.org/2000/svg">
<path d="M34.3594 67.1974C52.827 67.1974 67.798 52.2264 67.798 33.7588C67.798 15.2913 52.827 0.320312 34.3594 0.320312C15.8918 0.320312 0.920898 15.2913 0.920898 33.7588C0.920898 52.2264 15.8918 67.1974 34.3594 67.1974Z" fill="#828AE2"/>
<path d="M26 27C26 25.3431 27.3431 24 29 24C30.6569 24 32 25.3431 32 27V42C32 43.6569 30.6569 45 29 45C27.3431 45 26 43.6569 26 42V27Z" fill="#D9D9D9"/>
<path d="M36 27C36 25.3431 37.3431 24 39 24C40.6569 24 42 25.3431 42 27V42C42 43.6569 40.6569 45 39 45C37.3431 45 36 43.6569 36 42V27Z" fill="#D9D9D9"/>
</svg>
